<svg xmlns="http://www.w3.org/2000/svg" width="141" height="56" fill="none" viewBox="0 0 141 56"><path fill="#E1201B" d="M59.9 24.3c-1.7 0-2.7 1-3 2.5h5.8c-.2-1.6-1.3-2.5-2.8-2.5ZM44.3 25c-2 0-3.4 1.4-3.4 3.4s1.4 3.4 3.4 3.4 3.5-1.4 3.5-3.4-1.4-3.5-3.5-3.5Z"/><path fill="#E1201B" d="M86.3 21.7c-3.1 0-5.5 1.2-6 4.4A27.5 27.5 0 0 0 53 0C41 0 30.9 7.2 26.7 17.4h10l-.5 3.4h-7.8v3.5h7l-.5 3.2h-6.5v2.1c0 1.3.5 1.9 1.6 1.9h6.7l-.6 3.3h-8.4s-1.3-.2-2.1-1.3c0 0-.4-.4-.5-1l-.1-.3a23.9 23.9 0 0 0 .7 3.4 28.3 28.3 0 0 0 54.6-.8h-3.8V28c0-1.9-.7-3-2.6-3-1.8 0-2.5 1.1-2.5 3v6.8h-3.8V27c0-3.7 2.7-5.3 6.3-5.3 3.7 0 6.4 1.6 6.4 5.3v7.8H84V28c0-1.9.5-3 2.3-3l1.5.2.7-3.3-2.3-.2Zm-34.7 5.9c0 4.7-2.8 7.4-7.5 7.4-4.3 0-7.1-2.8-7.1-6.6 0-4 2.7-6.7 6.8-6.7 1.9 0 3.3.7 4 1.4v-5.7h3.8v10.2Zm9.5 4.6c1.1 0 2.2-.3 3.1-.7l-.3 3c-1 .4-2.4.5-3.7.5-4.3 0-7.4-2.5-7.4-6.8 0-3.7 2.7-6.5 7-6.5 4.7 0 7 3 7 7.6H57c.3 2.1 2.4 3 4.1 3ZM95 21.7c-4.3 0-7 2.8-7 6.5 0 4.3 3 6.8 7.4 6.8a10 10 0 0 0 3.7-.6l.3-3c-1 .5-2 .8-3 .8-1.8 0-3.9-.8-4.3-3h9.9c0-4.5-2.3-7.5-7-7.5Zm-3 5c.4-1.3 1.4-2.4 3-2.4s2.7 1 2.9 2.5H92ZM113.2 17.4v5.7c-.7-.7-2-1.4-4-1.4-4 0-6.8 2.6-6.8 6.7 0 3.8 2.9 6.6 7.2 6.6 4.6 0 7.4-2.7 7.4-7.4V17.4h-3.8Zm-3.5 14.4c-2 0-3.4-1.5-3.4-3.4 0-2 1.4-3.5 3.4-3.5 2.1 0 3.5 1.4 3.5 3.5 0 2-1.4 3.4-3.5 3.4Z"/></svg>